<svg xmlns="http://www.w3.org/2000/svg" viewBox="0 0 198.69 207.62"><defs><style>.cls-1{fill:#101820;}</style></defs><title>Asset 8</title><g id="Layer_2" data-name="Layer 2"><g id="Logotype"><rect class="cls-1" width="38.67" height="163.5"/><path class="cls-1" d="M147.24,48.57a6.29,6.29,0,1,0,6.29,6.29A6.29,6.29,0,0,0,147.24,48.57Z"/><path class="cls-1" d="M109.51,54.86a44,44,0,1,0,44,44A44,44,0,0,0,109.51,54.86Zm0,66a22,22,0,1,1,22-22A22,22,0,0,1,109.51,120.89Z"/><path class="cls-1" d="M109.51,185.61a22,22,0,0,1-22-22h-22a44,44,0,1,0,88,0h-22A22,22,0,0,1,109.51,185.61Z"/><path class="cls-1" d="M186.12,138.34a12.58,12.58,0,1,0,12.57,12.58A12.58,12.58,0,0,0,186.12,138.34Z"/></g></g></svg>